<mxfile host="app.diagrams.net" modified="2023-11-13T11:14:58.188Z" agent="Mozilla/5.0 (Windows NT 10.0; Win64; x64; rv:109.0) Gecko/20100101 Firefox/119.0" etag="800Ws7wYtU_c-z9Tb9VV" version="22.1.0" type="device">
  <diagram id="IKdcczgC__YtXfX8UIwX" name="Page-1">
    <mxGraphModel dx="710" dy="377" grid="1" gridSize="10" guides="1" tooltips="1" connect="1" arrows="1" fold="1" page="1" pageScale="1" pageWidth="827" pageHeight="1169" math="0" shadow="0">
      <root>
        <mxCell id="0" />
        <mxCell id="1" parent="0" />
        <mxCell id="m_R6_4stdK32f-bWhgOH-3" value="&lt;b&gt;Fach&lt;/b&gt;" style="html=1;fontStyle=0" parent="1" vertex="1">
          <mxGeometry x="320" y="80" width="100" height="30" as="geometry" />
        </mxCell>
        <mxCell id="m_R6_4stdK32f-bWhgOH-19" value="unterrichtet" style="endArrow=none;html=1;endFill=0;verticalAlign=top;labelBackgroundColor=none;" parent="1" source="m_R6_4stdK32f-bWhgOH-1" target="m_R6_4stdK32f-bWhgOH-3" edge="1">
          <mxGeometry relative="1" as="geometry">
            <mxPoint x="120" y="160" as="sourcePoint" />
            <mxPoint x="290" y="100" as="targetPoint" />
          </mxGeometry>
        </mxCell>
        <mxCell id="m_R6_4stdK32f-bWhgOH-20" value="2" style="resizable=0;html=1;align=left;verticalAlign=bottom;labelBackgroundColor=none;fontSize=10;spacingTop=-8;spacingLeft=0;" parent="m_R6_4stdK32f-bWhgOH-19" connectable="0" vertex="1">
          <mxGeometry x="-1" relative="1" as="geometry">
            <mxPoint x="3" as="offset" />
          </mxGeometry>
        </mxCell>
        <mxCell id="m_R6_4stdK32f-bWhgOH-21" value="3" style="resizable=0;html=1;align=right;verticalAlign=bottom;labelBackgroundColor=none;fontSize=10;spacingLeft=0;spacing=2;spacingBottom=0;spacingRight=3;spacingTop=0;" parent="m_R6_4stdK32f-bWhgOH-19" connectable="0" vertex="1">
          <mxGeometry x="1" relative="1" as="geometry">
            <mxPoint x="-1" as="offset" />
          </mxGeometry>
        </mxCell>
        <mxCell id="m_R6_4stdK32f-bWhgOH-1" value="&lt;b&gt;Lehrer&lt;/b&gt;" style="html=1;fontStyle=0" parent="1" vertex="1">
          <mxGeometry x="100" y="80" width="100" height="30" as="geometry" />
        </mxCell>
        <mxCell id="T6Ai0_ayIKamRRYhBH8k-1" value="" style="triangle;whiteSpace=wrap;html=1;dashed=0;direction=north;fillColor=#000000;aspect=fixed;rotation=90;" parent="1" vertex="1">
          <mxGeometry x="296" y="104" width="4.5" height="9" as="geometry" />
        </mxCell>
      </root>
    </mxGraphModel>
  </diagram>
</mxfile>
